{"title":"Chronicle.2012.DC.1080p.HEVC.HE-AAC-WAF4HD","uid":15733669,"size":821195571,"categoryP":"video","categoryS":"movies","magnet":"?xt=urn:btih:ee45c8caa5c3a1a788882e130e64a8705e20aa27&amp;dn=Chronicle.2012.DC.1080p.HEVC.HE-AAC-WAF4HD&amp;tr=udp%3A%2F%2Ftracker.leechers-paradise.org%3A6969&amp;tr=udp%3A%2F%2Fzer0day.ch%3A1337&amp;tr=udp%3A%2F%2Fopen.demonii.com%3A1337&amp;tr=udp%3A%2F%2Ftracker.coppersurfer.tk%3A6969&amp;tr=udp%3A%2F%2Fexodus.desync.com%3A6969","seeders":0,"leechers":1,"uploader":"WAF4HD","files":1,"time":1472815118,"description":"General\r\nFormat                                   : MPEG-4\r\nFormat profile                           : Base Media\r\nCodec ID                                 : isom (isom/iso2/mp41)\r\nFile size                                : 783 MiB\r\nDuration                                 : 1h 29mn\r\nOverall bit rate                         : 1 223 Kbps\r\nWriting application                      : Lavf56.25.101\r\n\r\nVideo\r\nID                                       : 1\r\nFormat                                   : HEVC\r\nFormat/Info                              : High Efficiency Video Coding\r\nFormat profile                           : Main   @Main\r\nCodec ID                                 : hev1\r\nCodec ID/Info                            : High Efficiency Video Coding\r\nDuration                                 : 1h 29mn\r\nBit rate                                 : 1 011 Kbps\r\nWidth                                    : 1 920 pixels\r\nHeight                                   : 1 036 pixels\r\nDisplay aspect ratio                     : 1.85:1\r\nFrame rate mode                          : Constant\r\nFrame rate                               : 23.976 (23976/1000) fps\r\nColor space                              : YUV\r\nChroma subsampling                       : 4:2:0\r\nBit depth                                : 10 bits\r\nScan type                                : Progressive\r\nBits/(Pixel*Frame)                       : 0.021\r\nStream size                              : 648 MiB (83%)\r\nWriting library                          : x265 1.6:[Windows][GCC 4.8.3][32 bit] 16bpp\r\nEncoding settings                        : wpp / ctu=64 / min-cu-size=8 / max-tu-size=32 / tu-intra-depth=1 / tu-inter-depth=1 / me=1 / subme=2 / merange=57 / no-rect / no-amp / max-merge=2 / temporal-mvp / no-early-skip / rdpenalty=0 / no-tskip / no-tskip-fast / strong-intra-smoothing / no-lossless / no-cu-lossless / no-constrained-intra / no-fast-intra / open-gop / no-temporal-layers / interlace=0 / keyint=250 / min-keyint=23 / scenecut=40 / rc-lookahead=20 / lookahead-slices=0 / bframes=4 / bframe-bias=0 / b-adapt=2 / ref=3 / weightp / no-weightb / aq-mode=1 / aq-strength=1.00 / cbqpoffs=0 / crqpoffs=0 / rd=3 / psy-rd=0.30 / rdoq-level=0 / psy-rdoq=0.00 / signhide / deblock / sao / no-sao-non-deblock / b-pyramid / cutree / rc=crf / crf=28.0 / qcomp=0.60 / qpmin=0 / qpmax=51 / qpstep=4 / ipratio=1.40 / pbratio=1.30\r\n\r\nAudio\r\nID                                       : 2\r\nFormat                                   : AAC\r\nFormat/Info                              : Advanced Audio Codec\r\nFormat profile                           : HE-AAC / LC\r\nCodec ID                                 : 40\r\nDuration                                 : 1h 29mn\r\nBit rate mode                            : Constant\r\nBit rate                                 : 207 Kbps\r\nChannel(s)                               : 2 channels\r\nChannel(s)_Original                      : 6 channels\r\nChannel positions                        : Front: L C R, Side: L R, LFE\r\nSampling rate                            : 48.0 KHz / 24.0 KHz\r\nFrame rate                               : 23.438 fps (1024 spf)\r\nCompression mode                         : Lossy\r\nStream size                              : 133 MiB (17%)\r\nDefault                                  : Yes\r\nAlternate group                          : 1\r\n\r\n\r\nReleased by WAF4HD Team.\r\nWe encode only 1080p/2160p HEVC 10bit HE-AAC for small size and quality","torrent":{"xt":"urn:btih:ee45c8caa5c3a1a788882e130e64a8705e20aa27","amp;dn":"Chronicle.2012.DC.1080p.HEVC.HE-AAC-WAF4HD","amp;tr":["udp%3A%2F%2Ftracker.leechers-paradise.org%3A6969","udp%3A%2F%2Fzer0day.ch%3A1337","udp%3A%2F%2Fopen.demonii.com%3A1337","udp%3A%2F%2Ftracker.coppersurfer.tk%3A6969","udp%3A%2F%2Fexodus.desync.com%3A6969"],"infoHash":"ee45c8caa5c3a1a788882e130e64a8705e20aa27","infoHashBuffer":{"type":"Buffer","data":[238,69,200,202,165,195,161,167,136,136,46,19,14,100,168,112,94,32,170,39]},"announce":[],"urlList":[]}}